<svg width="0" height="0" class="hidden">
  <symbol xmlns="http://www.w3.org/2000/svg" viewBox="0 0 22 22" id="commens">
    <path
      d="M9.875 11a1.125 1.125 0 102.25 0 1.125 1.125 0 00-2.25 0zm4.688 0a1.125 1.125 0 102.25 0 1.125 1.125 0 00-2.25 0zm-9.375 0a1.125 1.125 0 102.25 0 1.125 1.125 0 00-2.25 0zm15.497-4.069A10.503 10.503 0 0011 .5h-.047A10.475 10.475 0 00.5 11.05a10.533 10.533 0 001.125 4.684v3.563a1.078 1.078 0 001.078 1.078h3.565a10.533 10.533 0 004.685 1.125h.05c1.403 0 2.765-.272 4.047-.804a10.417 10.417 0 003.347-2.231 10.475 10.475 0 003.103-7.418 10.46 10.46 0 00-.815-4.116zm-3.542 10.266A8.673 8.673 0 0111 19.719h-.04a8.75 8.75 0 01-4.057-1.02l-.197-.105h-3.3v-3.3l-.105-.197a8.75 8.75 0 01-1.02-4.057 8.665 8.665 0 012.522-6.183 8.653 8.653 0 016.16-2.576h.04c1.171 0 2.308.228 3.38.678a8.664 8.664 0 012.788 1.875 8.683 8.683 0 012.552 6.206 8.685 8.685 0 01-2.58 6.157z">
    </path>
  </symbol>
  <symbol xmlns="http://www.w3.org/2000/svg" viewBox="0 0 20 20" id="like">
    <path
      d="M18.763 10.51c.394-.52.612-1.158.612-1.822 0-1.052-.588-2.048-1.535-2.604a1.586 1.586 0 00-.804-.218h-5.62l.14-2.88a2.509 2.509 0 00-.691-1.861A2.499 2.499 0 009.039.342c-1.219 0-2.297.82-2.62 1.995L4.405 9.626h-3.03a.75.75 0 00-.75.75v8.531c0 .415.335.75.75.75h14.093c.216 0 .427-.042.621-.127a3.014 3.014 0 001.709-3.642 3.016 3.016 0 00.485-2.688c.394-.52.611-1.158.611-1.821a3.2 3.2 0 00-.13-.87zm-16.45 7.46v-6.657H4.21v6.657H2.312zm14.915-8.274l-.513.445.326.596a1.338 1.338 0 01-.298 1.648l-.513.445.325.595a1.338 1.338 0 01-.298 1.648l-.512.445.325.595a1.332 1.332 0 01-.626 1.854H5.711v-6.729L8.043 2.79a1.034 1.034 0 01.989-.757.833.833 0 01.837.872l-.225 4.65h7.368c.418.255.675.687.675 1.134 0 .387-.168.753-.459 1.008z">
    </path>
  </symbol>
  <symbol xmlns="http://www.w3.org/2000/svg" viewBox="0 0 20 20" id="save">
    <path
      d="M18.937 4.874l-3.811-3.81A1.494 1.494 0 0014.5.687V.625H1.375a.75.75 0 00-.75.75v17.25c0 .415.335.75.75.75h17.25a.75.75 0 00.75-.75V5.934c0-.399-.157-.779-.438-1.06zM7 2.313h6V4.75H7V2.312zm10.688 15.374H2.313V2.313H5.5V5.5c0 .415.335.75.75.75h7.5a.75.75 0 00.75-.75V2.823l3.188 3.188v11.677zM10 8.36a3.376 3.376 0 10.002 6.752A3.376 3.376 0 0010 8.36zm0 5.25a1.875 1.875 0 11-.001-3.749A1.875 1.875 0 0110 13.61z">
    </path>
  </symbol>
  <symbol xmlns="http://www.w3.org/2000/svg" viewBox="0 0 18 20" id="share">
    <path
      d="M14.625 13.563a2.8 2.8 0 00-1.767.625l-4.856-3.513a3.766 3.766 0 000-1.35l4.856-3.513a2.8 2.8 0 001.767.625 2.815 2.815 0 002.813-2.812A2.815 2.815 0 0014.624.812a2.815 2.815 0 00-2.702 3.593L7.31 7.745A3.749 3.749 0 00.562 10a3.749 3.749 0 006.748 2.255l4.613 3.34a2.815 2.815 0 002.702 3.593 2.815 2.815 0 002.813-2.813 2.815 2.815 0 00-2.813-2.813zm0-11.157a1.22 1.22 0 11-.001 2.439 1.22 1.22 0 01.001-2.439zM4.312 12.062A2.066 2.066 0 012.25 10c0-1.137.926-2.063 2.063-2.063 1.136 0 2.062.926 2.062 2.063a2.066 2.066 0 01-2.063 2.063zm10.313 5.532a1.22 1.22 0 11.001-2.439 1.22 1.22 0 01-.001 2.439z">
    </path>
  </symbol>
  <symbol xmlns="http://www.w3.org/2000/svg" viewBox="0 0 22 22" id="exit">
    <path
      d="M15.5371 1.92734C15.5084 1.91289 15.4765 1.90604 15.4444 1.90747C15.4123 1.90889 15.3811 1.91854 15.3538 1.93548C15.3265 1.95242 15.3041 1.97608 15.2885 2.00421C15.273 2.03233 15.265 2.06397 15.2652 2.09609V3.60078C15.2652 3.72969 15.3332 3.84922 15.441 3.91953C15.9695 4.2522 16.4586 4.64376 16.8988 5.08672C17.6652 5.85547 18.2676 6.74844 18.6871 7.74219C19.121 8.77093 19.3434 9.87648 19.341 10.993C19.341 12.1203 19.1207 13.2148 18.6871 14.2438C18.268 15.2361 17.6608 16.1378 16.8988 16.8992C16.1394 17.6631 15.2382 18.2713 14.2457 18.6898C13.2191 19.1258 12.1246 19.3461 10.9996 19.3461C9.8746 19.3461 8.78007 19.1258 7.7535 18.6898C6.76102 18.2713 5.85978 17.6631 5.10038 16.8992C4.33843 16.1378 3.73115 15.2361 3.3121 14.2438C2.87823 13.215 2.65584 12.1095 2.65819 10.993C2.65819 9.86563 2.8785 8.77109 3.3121 7.74219C3.73163 6.74844 4.33397 5.85547 5.10038 5.08672C5.54569 4.64141 6.03319 4.25234 6.55819 3.91953C6.66835 3.85156 6.73397 3.72969 6.73397 3.60078V2.09375C6.73397 1.95312 6.58632 1.86406 6.4621 1.925C3.18319 3.575 0.921473 6.95234 0.874598 10.8664C0.808973 16.4633 5.38632 21.1133 10.9808 21.125C16.5824 21.1367 21.1246 16.5945 21.1246 10.9906C21.1246 7.025 18.8512 3.59141 15.5371 1.92734ZM10.2496 12.125H11.7496C11.8527 12.125 11.9371 12.0406 11.9371 11.9375V1.0625C11.9371 0.959375 11.8527 0.875 11.7496 0.875H10.2496C10.1465 0.875 10.0621 0.959375 10.0621 1.0625V11.9375C10.0621 12.0406 10.1465 12.125 10.2496 12.125Z" />
  </symbol>
  <symbol xmlns="http://www.w3.org/2000/svg" viewBox="0 0 12 14" id="fire">
    <path
      d="M11.0328 6.33147C10.7295 5.64875 10.2885 5.03597 9.7375 4.53147L9.28281 4.11428C9.26737 4.10051 9.24879 4.09073 9.22869 4.08581C9.2086 4.08089 9.1876 4.08099 9.16754 4.08608C9.14749 4.09117 9.12899 4.1011 9.11367 4.11501C9.09835 4.12892 9.08668 4.14638 9.07969 4.16585L8.87656 4.74866C8.75 5.11428 8.51719 5.48772 8.1875 5.85491C8.16563 5.87835 8.14063 5.8846 8.12344 5.88616C8.10625 5.88772 8.07969 5.8846 8.05625 5.86272C8.03437 5.84397 8.02344 5.81585 8.025 5.78772C8.08281 4.8471 7.80156 3.78616 7.18594 2.63147C6.67656 1.6721 5.96875 0.92366 5.08437 0.401785L4.43906 0.0220976C4.35469 -0.0279024 4.24688 0.0377225 4.25156 0.13616L4.28594 0.88616C4.30937 1.39866 4.25 1.85179 4.10938 2.22835C3.9375 2.68929 3.69062 3.11741 3.375 3.50179C3.15535 3.76891 2.90639 4.01053 2.63281 4.2221C1.97391 4.72861 1.43815 5.37762 1.06562 6.12054C0.694022 6.86993 0.500453 7.695 0.5 8.53147C0.5 9.26897 0.645312 9.98304 0.932812 10.6565C1.21042 11.3049 1.61103 11.8933 2.1125 12.3893C2.61875 12.8893 3.20625 13.283 3.86094 13.5565C4.53906 13.8408 5.25781 13.9846 6 13.9846C6.74219 13.9846 7.46094 13.8408 8.13906 13.558C8.79214 13.2862 9.38601 12.8898 9.8875 12.3908C10.3938 11.8908 10.7906 11.3065 11.0672 10.658C11.3543 9.98644 11.5015 9.26341 11.5 8.53303C11.5 7.77053 11.3438 7.02991 11.0328 6.33147ZM9.14062 11.633C8.30156 12.4643 7.1875 12.9205 6 12.9205C4.8125 12.9205 3.69844 12.4643 2.85938 11.633C2.02344 10.8033 1.5625 9.70335 1.5625 8.53303C1.5625 7.85335 1.71563 7.20179 2.01719 6.59554C2.31094 6.00335 2.74844 5.47366 3.27969 5.06585C3.6185 4.80678 3.9258 4.50891 4.19531 4.17835C4.58594 3.70179 4.89219 3.17053 5.10469 2.60022C5.19185 2.36497 5.25519 2.12156 5.29375 1.87366C5.67031 2.22054 5.98594 2.63928 6.25 3.12991C6.77187 4.10803 7.0125 4.97835 6.96562 5.71897C6.95443 5.8934 6.98291 6.06811 7.04895 6.22994C7.11498 6.39178 7.21684 6.53654 7.34688 6.65335C7.45956 6.75514 7.59135 6.83352 7.73458 6.88395C7.87782 6.93438 8.02965 6.95584 8.18125 6.9471C8.48906 6.93147 8.77187 6.79554 8.97812 6.56585C9.18594 6.33304 9.36563 6.09554 9.51562 5.85335C9.73438 6.13304 9.91719 6.43772 10.0625 6.76585C10.3109 7.32522 10.4375 7.92053 10.4375 8.53303C10.4375 9.70335 9.97656 10.8049 9.14062 11.633Z"
       />
  </symbol>
</svg>